<svg width="24" height="24" viewBox="0 0 24 24" fill="none" xmlns="http://www.w3.org/2000/svg">
<path d="M16.8674 2C16.9677 2 17.0316 2.10532 16.9839 2.19203L14.2558 7.15101C14.2082 7.23771 14.2721 7.34304 14.3723 7.34304H15.7678C15.8651 7.34304 15.9292 7.44263 15.8874 7.52897L13.4458 12.5786C13.404 12.6649 13.4681 12.7646 13.5654 12.7646H14.9309C15.0375 12.7647 15.1004 12.8823 15.0399 12.9686L8.75045 21.934C8.6616 22.0607 8.46209 21.9577 8.51771 21.8139L11.2221 14.8267C11.255 14.7416 11.191 14.6504 11.0984 14.6503H8.83979C8.75323 14.6503 8.69 14.57 8.71166 14.4877L10.1354 9.07716C10.157 8.99479 10.0938 8.91451 10.0072 8.91449H8.14249C8.05072 8.91449 7.9868 8.82495 8.01797 8.74012L10.4644 2.08591C10.4834 2.03435 10.5332 2 10.5889 2H16.8674Z" fill="#F1F2F3"/>
<path d="M9.04787 2.17659C9.09898 2.04193 9.25156 1.97349 9.38857 2.0237C9.52556 2.07395 9.5952 2.22391 9.54412 2.35858L6.76273 9.63684H9.04122L7.5186 15.3629H10.1387L7.68863 21.8306C7.63757 21.9652 7.48508 22.0337 7.34806 21.9836C7.21106 21.9334 7.14139 21.7835 7.19239 21.6488L9.37636 15.8835H6.83281L8.35542 10.1574H6L9.04787 2.17659Z" fill="#F1F2F3"/>
</svg>
